<svg width="561" height="81" viewBox="0 0 561 81" fill="none" xmlns="http://www.w3.org/2000/svg">
<path d="M28.8172 31.9579H19.9038V47.2752C19.9038 49.0059 20.5961 50.1021 21.9807 50.5636C23.3653 51.0252 25.6442 51.1694 28.8172 50.9963V62.7655C20.5673 63.6309 14.8557 62.8521 11.6827 60.429C8.5096 57.9482 6.92306 53.5636 6.92306 47.2752V31.9579H0V19.4964H6.92306V11.2753L19.9038 7.38103V19.4964H28.8172V31.9579Z" fill="black"/>
<path d="M49.9928 27.1983C50.8004 24.4291 52.4158 22.3233 54.8389 20.881C57.3197 19.381 60.0312 18.631 62.9735 18.631V33.3425C59.8004 32.8233 56.8293 33.3714 54.0601 34.9867C51.3485 36.5444 49.9928 39.2848 49.9928 43.2079V62.7655H37.012V19.4964H49.9928V27.1983Z" fill="black"/>
<path d="M97.146 19.4964H110.992L96.1941 61.4674C93.771 68.2751 90.5691 73.1501 86.5883 76.0924C82.6652 79.0347 77.646 80.3616 71.5306 80.0732V67.9578C74.5306 67.9578 76.8383 67.4097 78.4537 66.3136C80.0691 65.2751 81.3672 63.429 82.3479 60.7752L65.1268 19.4964H79.4056L89.0114 45.9771L97.146 19.4964Z" fill="black"/>
<path d="M161.766 31.9579H152.852V47.2752C152.852 49.0059 153.545 50.1021 154.929 50.5636C156.314 51.0252 158.593 51.1694 161.766 50.9963V62.7655C153.516 63.6309 147.804 62.8521 144.631 60.429C141.458 57.9482 139.871 53.5636 139.871 47.2752V31.9579H132.948V19.4964H139.871V11.2753L152.852 7.38103V19.4964H161.766V31.9579Z" fill="black"/>
<path d="M194.471 18.2849C199.086 18.2849 202.923 19.8714 205.981 23.0445C209.096 26.2175 210.654 30.6021 210.654 36.1983V62.7655H197.673V38.1021C197.673 35.5637 196.952 33.631 195.51 32.3041C194.125 30.9194 192.336 30.2271 190.144 30.2271C187.663 30.2271 185.702 30.9771 184.26 32.4771C182.817 33.9771 182.096 36.1983 182.096 39.1406V62.7655H169.115V2.18873H182.096V23.5637C184.692 20.0445 188.817 18.2849 194.471 18.2849Z" fill="black"/>
<path d="M231.51 13.4387C230.01 14.9387 228.193 15.6887 226.058 15.6887C223.924 15.6887 222.077 14.9387 220.52 13.4387C219.02 11.881 218.27 10.0349 218.27 7.90026C218.27 5.76565 219.02 3.94835 220.52 2.44835C222.077 0.890661 223.924 0.111816 226.058 0.111816C228.193 0.111816 230.01 0.890661 231.51 2.44835C233.068 3.94835 233.847 5.76565 233.847 7.90026C233.847 10.0349 233.068 11.881 231.51 13.4387ZM219.568 62.7655V19.4964H232.549V62.7655H219.568Z" fill="black"/>
<path d="M253.913 32.131C253.913 32.9964 254.635 33.7175 256.077 34.2944C257.577 34.8137 259.365 35.3617 261.442 35.9387C263.519 36.4579 265.596 37.1502 267.673 38.0156C269.75 38.881 271.51 40.3233 272.952 42.3425C274.452 44.304 275.202 46.7848 275.202 49.7848C275.202 54.4579 273.471 58.0059 270.009 60.429C266.548 62.7944 262.279 63.9771 257.202 63.9771C248.086 63.9771 241.885 60.5444 238.596 53.679L249.846 47.2752C251 50.679 253.452 52.3809 257.202 52.3809C260.317 52.3809 261.875 51.4867 261.875 49.6982C261.875 48.8329 261.125 48.1117 259.625 47.5348C258.183 46.9579 256.423 46.4098 254.346 45.8906C252.269 45.3136 250.192 44.5925 248.115 43.7271C246.038 42.804 244.25 41.3906 242.75 39.4867C241.308 37.5829 240.586 35.2464 240.586 32.4771C240.586 27.9771 242.202 24.4868 245.433 22.006C248.721 19.5252 252.76 18.2849 257.548 18.2849C261.125 18.2849 264.385 19.0925 267.327 20.7079C270.269 22.2656 272.634 24.5445 274.423 27.5444L263.346 33.5156C261.961 30.9771 260.029 29.7079 257.548 29.7079C255.125 29.7079 253.913 30.5156 253.913 32.131Z" fill="black"/>
<path d="M323.538 13.4387C318.172 12.9772 315.49 14.9964 315.49 19.4964H323.538V31.9579H315.49V62.7655H302.509V31.9579H296.711V19.4964H302.509C302.509 13.2656 304.269 8.53487 307.788 5.30411C311.307 2.01566 316.557 0.573355 323.538 0.977199V13.4387Z" fill="black"/>
<path d="M364.075 57.4002C359.633 61.7848 354.21 63.9771 347.806 63.9771C341.402 63.9771 335.979 61.7848 331.537 57.4002C327.094 52.9579 324.873 47.5348 324.873 41.131C324.873 34.7271 327.094 29.3329 331.537 24.9483C335.979 20.506 341.402 18.2849 347.806 18.2849C354.21 18.2849 359.633 20.506 364.075 24.9483C368.517 29.3329 370.738 34.7271 370.738 41.131C370.738 47.5348 368.517 52.9579 364.075 57.4002ZM340.71 48.4867C342.613 50.3906 344.979 51.3425 347.806 51.3425C350.633 51.3425 352.998 50.3906 354.902 48.4867C356.806 46.5829 357.758 44.131 357.758 41.131C357.758 38.131 356.806 35.679 354.902 33.7752C352.998 31.8714 350.633 30.9194 347.806 30.9194C344.979 30.9194 342.613 31.8714 340.71 33.7752C338.806 35.679 337.854 38.131 337.854 41.131C337.854 44.131 338.806 46.5829 340.71 48.4867Z" fill="black"/>
<path d="M415.119 57.4002C410.677 61.7848 405.254 63.9771 398.85 63.9771C392.446 63.9771 387.023 61.7848 382.581 57.4002C378.138 52.9579 375.917 47.5348 375.917 41.131C375.917 34.7271 378.138 29.3329 382.581 24.9483C387.023 20.506 392.446 18.2849 398.85 18.2849C405.254 18.2849 410.677 20.506 415.119 24.9483C419.561 29.3329 421.782 34.7271 421.782 41.131C421.782 47.5348 419.561 52.9579 415.119 57.4002ZM391.754 48.4867C393.658 50.3906 396.023 51.3425 398.85 51.3425C401.677 51.3425 404.042 50.3906 405.946 48.4867C407.85 46.5829 408.802 44.131 408.802 41.131C408.802 38.131 407.85 35.679 405.946 33.7752C404.042 31.8714 401.677 30.9194 398.85 30.9194C396.023 30.9194 393.658 31.8714 391.754 33.7752C389.85 35.679 388.898 38.131 388.898 41.131C388.898 44.131 389.85 46.5829 391.754 48.4867Z" fill="black"/>
<path d="M460.538 2.18873H473.519V62.7655H460.538V58.6982C457.48 62.2174 453.182 63.9771 447.644 63.9771C441.932 63.9771 437.057 61.7848 433.019 57.4002C428.98 52.9579 426.961 47.5348 426.961 41.131C426.961 34.7271 428.98 29.3329 433.019 24.9483C437.057 20.506 441.932 18.2849 447.644 18.2849C453.182 18.2849 457.48 20.0445 460.538 23.5637V2.18873ZM442.798 48.8329C444.702 50.7367 447.182 51.6886 450.24 51.6886C453.298 51.6886 455.778 50.7367 457.682 48.8329C459.586 46.929 460.538 44.3617 460.538 41.131C460.538 37.9002 459.586 35.3329 457.682 33.4291C455.778 31.5252 453.298 30.5733 450.24 30.5733C447.182 30.5733 444.702 31.5252 442.798 33.4291C440.894 35.3329 439.942 37.9002 439.942 41.131C439.942 44.3617 440.894 46.929 442.798 48.8329Z" fill="black"/>
<path d="M508.619 13.4387C507.119 14.9387 505.302 15.6887 503.167 15.6887C501.032 15.6887 499.186 14.9387 497.629 13.4387C496.129 11.881 495.379 10.0349 495.379 7.90026C495.379 5.76565 496.129 3.94835 497.629 2.44835C499.186 0.890661 501.032 0.111816 503.167 0.111816C505.302 0.111816 507.119 0.890661 508.619 2.44835C510.177 3.94835 510.956 5.76565 510.956 7.90026C510.956 10.0349 510.177 11.881 508.619 13.4387ZM496.677 62.7655V19.4964H509.657V62.7655H496.677Z" fill="black"/>
<path d="M544.512 18.2849C549.127 18.2849 552.964 19.8714 556.022 23.0445C559.137 26.2175 560.695 30.6021 560.695 36.1983V62.7655H547.714V38.1021C547.714 35.5637 546.993 33.631 545.551 32.3041C544.166 30.9194 542.377 30.2271 540.185 30.2271C537.704 30.2271 535.743 30.9771 534.301 32.4771C532.858 33.9771 532.137 36.1983 532.137 39.1406V62.7655H519.156V19.4964H532.137V23.5637C534.733 20.0445 538.858 18.2849 544.512 18.2849Z" fill="black"/>
</svg>
