<svg width="12" height="12" viewBox="0 0 12 12" fill="none" xmlns="http://www.w3.org/2000/svg">
<path fill-rule="evenodd" clip-rule="evenodd" d="M2.66667 1H9.33333C10.2538 1 11 1.74619 11 2.66667V9.33333C11 10.2538 10.2538 11 9.33333 11H2.66667C1.74619 11 1 10.2538 1 9.33333V2.66667C1 1.74619 1.74619 1 2.66667 1ZM0 2.66667C0 1.19391 1.19391 0 2.66667 0H9.33333C10.8061 0 12 1.19391 12 2.66667V9.33333C12 10.8061 10.8061 12 9.33333 12H2.66667C1.19391 12 0 10.8061 0 9.33333V2.66667ZM6 3C4.34315 3 3 4.34315 3 6C3 7.65685 4.34315 9 6 9C7.65685 9 9 7.65685 9 6C9 4.34315 7.65685 3 6 3Z" fill="#51A044"/>
</svg>
