<svg width="12" height="13" viewBox="0 0 12 13" fill="none" xmlns="http://www.w3.org/2000/svg">
<path fill-rule="evenodd" clip-rule="evenodd" d="M2.66667 1.02637H9.33333C10.2538 1.02637 11 1.77256 11 2.69303V9.3597C11 10.2802 10.2538 11.0264 9.33333 11.0264H2.66667C1.74619 11.0264 1 10.2802 1 9.3597V2.69303C1 1.77256 1.74619 1.02637 2.66667 1.02637ZM0 2.69303C0 1.22028 1.19391 0.0263672 2.66667 0.0263672H9.33333C10.8061 0.0263672 12 1.22027 12 2.69303V9.3597C12 10.8325 10.8061 12.0264 9.33333 12.0264H2.66667C1.19391 12.0264 0 10.8325 0 9.3597V2.69303ZM6 3.02637C4.34315 3.02637 3 4.36951 3 6.02637C3 7.68322 4.34315 9.02637 6 9.02637C7.65685 9.02637 9 7.68322 9 6.02637C9 4.36951 7.65685 3.02637 6 3.02637Z" fill="#F47979"/>
</svg>
