<svg width="12" height="13" viewBox="0 0 12 13" fill="none" xmlns="http://www.w3.org/2000/svg">
<path fill-rule="evenodd" clip-rule="evenodd" d="M2.66667 1.02637H9.33333C10.2538 1.02637 11 1.77256 11 2.69303V9.3597C11 10.2802 10.2538 11.0264 9.33333 11.0264H2.66667C1.74619 11.0264 1 10.2802 1 9.3597V2.69303C1 1.77256 1.74619 1.02637 2.66667 1.02637ZM0 2.69303C0 1.22028 1.19391 0.0263672 2.66667 0.0263672H9.33333C10.8061 0.0263672 12 1.22027 12 2.69303V9.3597C12 10.8325 10.8061 12.0264 9.33333 12.0264H2.66667C1.19391 12.0264 0 10.8325 0 9.3597V2.69303ZM6.4221 5.74379C7.33592 5.99632 8.374 6.28319 8.374 7.563C8.374 8.499 7.609 9.399 6.214 9.399C4.963 9.399 4 8.715 4 7.608H5.098C5.143 8.121 5.503 8.535 6.214 8.535C6.934 8.535 7.339 8.148 7.339 7.617C7.339 6.94032 6.67382 6.76297 5.93886 6.56701C5.0316 6.32511 4.018 6.05486 4.018 4.782C4.018 3.684 4.891 3 6.169 3C7.366 3 8.212 3.63 8.302 4.701H7.168C7.132 4.278 6.763 3.891 6.115 3.873C5.521 3.855 5.062 4.143 5.062 4.746C5.062 5.36794 5.70365 5.54525 6.4221 5.74379Z" fill="#F0874C"/>
</svg>
